<mxfile host="app.diagrams.net" agent="Mozilla/5.0 (Macintosh; Intel Mac OS X 10_15_7) AppleWebKit/537.36 (KHTML, like Gecko) Chrome/130.0.0.0 Safari/537.36" version="24.8.3">
  <diagram name="第 1 页" id="TQvTkyOf16lniJkfHUci">
    <mxGraphModel dx="815" dy="715" grid="0" gridSize="10" guides="1" tooltips="1" connect="1" arrows="1" fold="1" page="1" pageScale="1" pageWidth="827" pageHeight="1169" background="none" math="0" shadow="0">
      <root>
        <mxCell id="0" />
        <mxCell id="1" parent="0" />
        <mxCell id="N3Q_Z25CJC8FOhFmJbN1-1" value="POD&lt;div&gt;&lt;br&gt;&lt;/div&gt;&lt;div&gt;&lt;br&gt;&lt;/div&gt;" style="rounded=0;whiteSpace=wrap;html=1;fillColor=#dae8fc;strokeColor=#6c8ebf;" vertex="1" parent="1">
          <mxGeometry x="140" y="680" width="120" height="60" as="geometry" />
        </mxCell>
        <mxCell id="N3Q_Z25CJC8FOhFmJbN1-14" style="edgeStyle=orthogonalEdgeStyle;rounded=0;orthogonalLoop=1;jettySize=auto;html=1;exitX=0.5;exitY=1;exitDx=0;exitDy=0;entryX=0.5;entryY=0;entryDx=0;entryDy=0;" edge="1" parent="1" source="N3Q_Z25CJC8FOhFmJbN1-3" target="N3Q_Z25CJC8FOhFmJbN1-12">
          <mxGeometry relative="1" as="geometry" />
        </mxCell>
        <mxCell id="N3Q_Z25CJC8FOhFmJbN1-3" value="veth" style="rounded=1;whiteSpace=wrap;html=1;fillColor=#f5f5f5;strokeColor=#666666;fontColor=#333333;" vertex="1" parent="1">
          <mxGeometry x="170" y="710" width="60" height="20" as="geometry" />
        </mxCell>
        <mxCell id="N3Q_Z25CJC8FOhFmJbN1-8" value="POD&lt;div&gt;&lt;br&gt;&lt;/div&gt;&lt;div&gt;&lt;br&gt;&lt;/div&gt;" style="rounded=0;whiteSpace=wrap;html=1;fillColor=#dae8fc;strokeColor=#6c8ebf;" vertex="1" parent="1">
          <mxGeometry x="365" y="680" width="120" height="60" as="geometry" />
        </mxCell>
        <mxCell id="N3Q_Z25CJC8FOhFmJbN1-15" style="edgeStyle=orthogonalEdgeStyle;rounded=0;orthogonalLoop=1;jettySize=auto;html=1;exitX=0.5;exitY=1;exitDx=0;exitDy=0;entryX=0.5;entryY=0;entryDx=0;entryDy=0;" edge="1" parent="1" source="N3Q_Z25CJC8FOhFmJbN1-9" target="N3Q_Z25CJC8FOhFmJbN1-13">
          <mxGeometry relative="1" as="geometry" />
        </mxCell>
        <mxCell id="N3Q_Z25CJC8FOhFmJbN1-9" value="veth" style="rounded=1;whiteSpace=wrap;html=1;fillColor=#f5f5f5;strokeColor=#666666;fontColor=#333333;" vertex="1" parent="1">
          <mxGeometry x="395" y="710" width="60" height="20" as="geometry" />
        </mxCell>
        <mxCell id="N3Q_Z25CJC8FOhFmJbN1-10" value="veth" style="rounded=1;whiteSpace=wrap;html=1;fillColor=#f5f5f5;strokeColor=#666666;fontColor=#333333;" vertex="1" parent="1">
          <mxGeometry x="170" y="779" width="60" height="20" as="geometry" />
        </mxCell>
        <mxCell id="N3Q_Z25CJC8FOhFmJbN1-11" value="veth" style="rounded=1;whiteSpace=wrap;html=1;fillColor=#f5f5f5;strokeColor=#666666;fontColor=#333333;" vertex="1" parent="1">
          <mxGeometry x="395" y="779" width="60" height="20" as="geometry" />
        </mxCell>
        <mxCell id="N3Q_Z25CJC8FOhFmJbN1-12" value="ebpf" style="rounded=1;whiteSpace=wrap;html=1;fillColor=#f5f5f5;strokeColor=#666666;fontColor=#333333;" vertex="1" parent="1">
          <mxGeometry x="170" y="759" width="60" height="20" as="geometry" />
        </mxCell>
        <mxCell id="N3Q_Z25CJC8FOhFmJbN1-13" value="ebpf" style="rounded=1;whiteSpace=wrap;html=1;fillColor=#f5f5f5;strokeColor=#666666;fontColor=#333333;" vertex="1" parent="1">
          <mxGeometry x="395" y="759" width="60" height="20" as="geometry" />
        </mxCell>
        <mxCell id="N3Q_Z25CJC8FOhFmJbN1-34" value="" style="edgeStyle=orthogonalEdgeStyle;rounded=0;orthogonalLoop=1;jettySize=auto;html=1;" edge="1" parent="1" source="N3Q_Z25CJC8FOhFmJbN1-16" target="N3Q_Z25CJC8FOhFmJbN1-30">
          <mxGeometry relative="1" as="geometry" />
        </mxCell>
        <mxCell id="N3Q_Z25CJC8FOhFmJbN1-16" value="ENI" style="rounded=1;whiteSpace=wrap;html=1;fillColor=#f5f5f5;strokeColor=#666666;fontColor=#333333;" vertex="1" parent="1">
          <mxGeometry x="285" y="940" width="60" height="20" as="geometry" />
        </mxCell>
        <mxCell id="N3Q_Z25CJC8FOhFmJbN1-17" value="ebpf" style="rounded=1;whiteSpace=wrap;html=1;fillColor=#f5f5f5;strokeColor=#666666;fontColor=#333333;" vertex="1" parent="1">
          <mxGeometry x="285" y="920" width="60" height="20" as="geometry" />
        </mxCell>
        <mxCell id="N3Q_Z25CJC8FOhFmJbN1-28" style="edgeStyle=orthogonalEdgeStyle;rounded=0;orthogonalLoop=1;jettySize=auto;html=1;exitX=0.5;exitY=1;exitDx=0;exitDy=0;entryX=0.5;entryY=0;entryDx=0;entryDy=0;" edge="1" parent="1" source="N3Q_Z25CJC8FOhFmJbN1-19" target="N3Q_Z25CJC8FOhFmJbN1-17">
          <mxGeometry relative="1" as="geometry" />
        </mxCell>
        <mxCell id="N3Q_Z25CJC8FOhFmJbN1-19" value="Linux Routing" style="rounded=0;whiteSpace=wrap;html=1;fillColor=#d5e8d4;strokeColor=#82b366;" vertex="1" parent="1">
          <mxGeometry x="190" y="860" width="250" height="20" as="geometry" />
        </mxCell>
        <mxCell id="N3Q_Z25CJC8FOhFmJbN1-26" style="edgeStyle=orthogonalEdgeStyle;rounded=0;orthogonalLoop=1;jettySize=auto;html=1;exitX=0.5;exitY=1;exitDx=0;exitDy=0;entryX=0.131;entryY=-0.025;entryDx=0;entryDy=0;entryPerimeter=0;" edge="1" parent="1" source="N3Q_Z25CJC8FOhFmJbN1-10" target="N3Q_Z25CJC8FOhFmJbN1-19">
          <mxGeometry relative="1" as="geometry" />
        </mxCell>
        <mxCell id="N3Q_Z25CJC8FOhFmJbN1-27" style="edgeStyle=orthogonalEdgeStyle;rounded=0;orthogonalLoop=1;jettySize=auto;html=1;exitX=0.5;exitY=1;exitDx=0;exitDy=0;entryX=0.84;entryY=0.125;entryDx=0;entryDy=0;entryPerimeter=0;" edge="1" parent="1" source="N3Q_Z25CJC8FOhFmJbN1-11" target="N3Q_Z25CJC8FOhFmJbN1-19">
          <mxGeometry relative="1" as="geometry" />
        </mxCell>
        <mxCell id="N3Q_Z25CJC8FOhFmJbN1-33" value="" style="edgeStyle=orthogonalEdgeStyle;rounded=0;orthogonalLoop=1;jettySize=auto;html=1;" edge="1" parent="1" source="N3Q_Z25CJC8FOhFmJbN1-29" target="N3Q_Z25CJC8FOhFmJbN1-30">
          <mxGeometry relative="1" as="geometry" />
        </mxCell>
        <mxCell id="N3Q_Z25CJC8FOhFmJbN1-29" value="eth0" style="rounded=1;whiteSpace=wrap;html=1;fillColor=#f5f5f5;strokeColor=#666666;fontColor=#333333;" vertex="1" parent="1">
          <mxGeometry x="190" y="940" width="60" height="20" as="geometry" />
        </mxCell>
        <mxCell id="N3Q_Z25CJC8FOhFmJbN1-30" value="vSwitch" style="rounded=0;whiteSpace=wrap;html=1;fillColor=#dae8fc;strokeColor=#6c8ebf;" vertex="1" parent="1">
          <mxGeometry x="145" y="1000" width="340" height="20" as="geometry" />
        </mxCell>
        <mxCell id="N3Q_Z25CJC8FOhFmJbN1-35" value="" style="rounded=0;whiteSpace=wrap;html=1;opacity=10;strokeWidth=0;fillColor=#CCFFFF;perimeterSpacing=10;" vertex="1" parent="1">
          <mxGeometry x="120" y="660" width="380" height="380" as="geometry" />
        </mxCell>
      </root>
    </mxGraphModel>
  </diagram>
</mxfile>
